# xmcd
#
# Track frame offsets: 
#        150
#        35572
#        68501
#        93339
#        110076
#        140226
#        154191
#        177816
#
# Disc length: 2915 seconds
#
# Revision: 1
# Processed by: cddbd v1.5.2PL0 Copyright (c) Steve Scherf et al.
# Submitted via: ExactAudioCopy v0.99pb4
#
DISCID=6b0b6108
DTITLE=TKKG - Im Schatten des Dämons - 61
DYEAR=1989
DGENRE=Kinderhörspiel
TTITLE0=Hypnotisiert
TTITLE1=Widerliches Lachen
TTITLE2=Befehl von einem Dämon
TTITLE3=Präpariertes Geld
TTITLE4=Ein hartes Stück Arbeit
TTITLE5=Ausgeraubt
TTITLE6=Ein raffiniertes Scharlatan
TTITLE7=Großes Finale
EXTD=
EXTT0=
EXTT1=
EXTT2=
EXTT3=
EXTT4=
EXTT5=
EXTT6=
EXTT7=
PLAYORDER=
